<svg xmlns:dc="http://purl.org/dc/elements/1.1/" xmlns:cc="http://creativecommons.org/ns#" xmlns:rdf="http://www.w3.org/1999/02/22-rdf-syntax-ns#" xmlns:svg="http://www.w3.org/2000/svg" xmlns="http://www.w3.org/2000/svg" xmlns:sodipodi="http://sodipodi.sourceforge.net/DTD/sodipodi-0.dtd" xmlns:inkscape="http://www.inkscape.org/namespaces/inkscape" version="1.1" width="100" height="100" id="svg6584" inkscape:version="0.48.1 " sodipodi:docname="NounProject_Corporation.svg">
  <title id="title3929">Corporation</title>
  <sodipodi:namedview pagecolor="#ffffff" bordercolor="#666666" borderopacity="1" objecttolerance="10" gridtolerance="10" guidetolerance="10" inkscape:pageopacity="0" inkscape:pageshadow="2" inkscape:window-width="1280" inkscape:window-height="744" id="namedview7" showgrid="false" inkscape:zoom="5.6568542" inkscape:cx="72.398179" inkscape:cy="59.798917" inkscape:window-x="-4" inkscape:window-y="-4" inkscape:window-maximized="1" inkscape:current-layer="svg6584"/>
  <defs id="defs6586"/>
  <metadata id="metadata6589">
    <rdf:RDF>
      <cc:Work rdf:about="">
        <dc:format>image/svg+xml</dc:format>
        <dc:type rdf:resource="http://purl.org/dc/dcmitype/StillImage"/>
        <dc:title>Corporation</dc:title>
        <cc:license rdf:resource="http://creativecommons.org/licenses/publicdomain/"/>
      </cc:Work>
      <cc:License rdf:about="http://creativecommons.org/licenses/publicdomain/">
        <cc:permits rdf:resource="http://creativecommons.org/ns#Reproduction"/>
        <cc:permits rdf:resource="http://creativecommons.org/ns#Distribution"/>
        <cc:permits rdf:resource="http://creativecommons.org/ns#DerivativeWorks"/>
      </cc:License>
    </rdf:RDF>
  </metadata>
  <path inkscape:connector-curvature="0" style="color:#000000;fill:#000000;fill-opacity:1;fill-rule:nonzero;stroke:none;stroke-width:1;marker:none;visibility:visible;display:inline;overflow:visible;enable-background:accumulate" d="m 50.016199,11.492835 -31.249998,20.833319 62.499998,0 z" id="path2995"/>
  <path id="rect3006-1" style="fill:#000000;fill-opacity:1;fill-rule:nonzero;stroke:none" d="m 85.275134,74.060564 4,0 0,14.374656 -4,0 z m -74.625637,-0.1969 4,0 0,14.374657 -4,0 z m 3.957397,10.50907 70.710681,0.134431 4.032928,4 -78.642106,0 z" inkscape:connector-curvature="0" sodipodi:nodetypes="ccccccccccccccc"/>
  <path inkscape:connector-curvature="0" style="fill:#000000;fill-opacity:1;fill-rule:nonzero;stroke:none" d="m 22.9375,36.508245 c -2.308394,0 -4.15625,1.84792 -4.15625,4.15625 l -0.0625,39.125 62.40625,0.125 0.15625,-39.25 c 0,-2.30833 -1.879111,-4.15625 -4.1875,-4.15625 l -54.15625,0 z m 7.84375,6.25 c 2.30023,0 4.15563,1.788311 4.15625,4 0,2.218251 -1.85602,4.03125 -4.15625,4.03125 -2.30705,0 -4.1875,-1.812402 -4.1875,-4.03125 0,-2.211092 1.88045,-4 4.1875,-4 z m 19.21875,0 c 2.30023,0 4.18688,1.788311 4.1875,4 0,2.218251 -1.88727,4.03125 -4.1875,4.03125 -2.30705,0 -4.1875,-1.812402 -4.1875,-4.03125 0,-2.211092 1.88045,-4 4.1875,-4 z m 18.5,0 c 2.30023,0 4.15563,1.788311 4.15625,4 0,2.218251 -1.85602,4.03125 -4.15625,4.03125 -2.30705,0 -4.1875,-1.812402 -4.1875,-4.03125 0,-2.211092 1.88045,-4 4.1875,-4 z m -37.8125,10.625 c 2.766382,0 5.011991,2.202918 4.96875,4.96875 l 0.28125,15.1875 -10.34375,0.09375 0.0625,-15.28125 c 0.016,-2.766265 2.264881,-4.96875 5.03125,-4.96875 z m 19.25,0 c 2.766382,0 5.011991,2.202918 4.96875,4.96875 l 0.28125,15.1875 -10.375,0.09375 0.09375,-15.28125 c 0.016,-2.766265 2.264881,-4.96875 5.03125,-4.96875 z m 18.46875,0 c 2.766382,0 5.043241,2.202918 5,4.96875 l 0.25,15.1875 -10.34375,0.09375 0.09375,-15.28125 c 0.016,-2.766265 2.233631,-4.96875 5,-4.96875 z" id="rect3850-0"/>
</svg>